<?xml version="1.0" encoding="UTF-8"?>
<svg xmlns="http://www.w3.org/2000/svg" width="500" height="500" viewBox="0 0 500 500" role="img" aria-label="Loop Ledger logo (traced)">
  <path d="M 250 0 A 250 250 0 1 1 249.999 0 Z" fill="#00C060"/>
  <path d="M 87 246 L 87 253 L 88 254 L 400 254 L 401 253 L 401 246 L 400 245 L 88 245 Z" fill="#FF3B30"/>
  <path d="M 362 272 L 360 277 L 362 346 L 363 347 L 374 347 L 375 346 L 375 327 L 377 325 L 381 325 L 384 328 L 385 332 L 390 339 L 391 343 L 393 346 L 407 346 L 408 345 L 408 342 L 403 333 L 403 331 L 400 326 L 400 324 L 398 322 L 398 319 L 403 313 L 404 307 L 405 306 L 405 289 L 404 288 L 404 285 L 402 280 L 398 275 L 392 272 Z M 377 285 L 385 285 L 390 290 L 390 292 L 391 293 L 391 305 L 390 307 L 384 312 L 377 312 L 375 310 L 375 287 Z M 92 272 L 91 273 L 91 341 L 92 342 L 92 346 L 124 345 L 125 344 L 125 334 L 124 333 L 113 333 L 112 332 L 107 332 L 105 330 L 105 309 L 104 308 L 104 289 L 103 288 L 103 274 L 104 272 L 103 271 L 100 271 L 99 272 Z M 309 270 L 308 271 L 308 322 L 307 323 L 307 340 L 306 341 L 306 345 L 307 346 L 311 346 L 312 347 L 322 347 L 323 346 L 349 346 L 350 345 L 350 334 L 349 333 L 325 333 L 323 331 L 324 313 L 326 311 L 335 311 L 336 310 L 342 310 L 343 309 L 343 299 L 342 298 L 324 298 L 323 297 L 323 289 L 325 287 L 330 287 L 331 286 L 349 286 L 350 285 L 350 275 L 349 274 L 349 272 L 348 271 L 319 271 L 318 270 Z M 191 271 L 190 272 L 190 282 L 189 283 L 189 313 L 190 314 L 190 340 L 191 341 L 191 345 L 192 346 L 208 346 L 209 345 L 218 345 L 219 344 L 221 344 L 228 340 L 232 336 L 236 328 L 236 325 L 238 321 L 238 316 L 239 315 L 239 296 L 238 295 L 238 289 L 237 288 L 237 286 L 232 277 L 224 272 L 214 271 L 213 270 Z M 208 285 L 216 287 L 222 293 L 222 295 L 224 298 L 224 314 L 223 315 L 222 321 L 217 327 L 215 327 L 210 330 L 208 330 L 205 326 L 205 292 L 206 291 L 206 287 Z M 138 270 L 137 271 L 137 322 L 136 323 L 136 340 L 135 341 L 135 345 L 136 346 L 140 346 L 141 347 L 151 347 L 152 346 L 178 346 L 179 345 L 179 334 L 178 333 L 154 333 L 152 331 L 153 313 L 155 311 L 164 311 L 165 310 L 171 310 L 172 309 L 172 299 L 171 298 L 153 298 L 152 297 L 152 289 L 154 287 L 159 287 L 160 286 L 178 286 L 179 285 L 179 275 L 178 274 L 178 272 L 177 271 L 148 271 L 147 270 Z M 271 269 L 265 272 L 263 272 L 257 276 L 254 279 L 251 285 L 251 287 L 249 291 L 249 294 L 248 295 L 248 300 L 247 301 L 247 324 L 248 325 L 248 330 L 251 338 L 260 346 L 262 346 L 263 347 L 273 347 L 279 344 L 281 344 L 283 347 L 293 348 L 295 346 L 295 334 L 296 333 L 296 316 L 295 315 L 295 309 L 294 308 L 274 308 L 273 309 L 273 320 L 274 321 L 280 321 L 282 323 L 282 328 L 276 333 L 268 333 L 264 330 L 261 323 L 261 302 L 262 301 L 262 297 L 265 290 L 270 285 L 272 284 L 280 284 L 282 286 L 283 293 L 284 294 L 294 294 L 295 293 L 295 282 L 292 275 L 289 272 L 285 270 L 282 270 L 281 269 Z M 148 151 L 147 152 L 147 225 L 148 226 L 150 226 L 151 225 L 179 225 L 180 224 L 180 218 L 181 217 L 181 214 L 180 213 L 174 213 L 173 212 L 162 212 L 160 210 L 159 152 L 158 151 Z M 343 151 L 339 151 L 338 150 L 311 150 L 309 152 L 310 225 L 311 226 L 322 226 L 324 224 L 324 206 L 326 204 L 338 203 L 339 202 L 344 201 L 349 197 L 353 190 L 353 186 L 354 185 L 354 170 L 353 169 L 353 165 L 349 156 Z M 329 164 L 336 165 L 340 170 L 340 182 L 337 188 L 333 191 L 326 191 L 325 190 L 325 167 Z M 281 149 L 269 149 L 261 153 L 253 162 L 253 164 L 251 167 L 251 170 L 250 171 L 250 178 L 249 179 L 249 193 L 248 194 L 248 199 L 249 200 L 250 209 L 253 215 L 260 222 L 264 224 L 271 225 L 272 226 L 279 225 L 283 223 L 291 215 L 296 205 L 297 197 L 298 196 L 298 186 L 299 185 L 299 180 L 298 179 L 298 174 L 295 166 L 295 163 L 292 157 L 287 152 Z M 271 164 L 275 164 L 280 168 L 282 173 L 282 176 L 283 177 L 283 197 L 282 198 L 282 201 L 280 206 L 274 211 L 267 209 L 264 206 L 261 198 L 261 179 L 262 178 L 263 173 Z M 220 149 L 208 149 L 202 152 L 195 158 L 194 161 L 192 163 L 192 165 L 190 169 L 189 182 L 188 183 L 188 203 L 192 214 L 194 217 L 201 223 L 206 224 L 207 225 L 211 225 L 212 226 L 221 224 L 229 217 L 235 206 L 236 200 L 237 199 L 237 193 L 238 192 L 238 176 L 237 175 L 237 172 L 236 171 L 236 168 L 235 167 L 234 162 L 231 156 L 228 153 Z M 210 164 L 215 164 L 220 169 L 222 174 L 222 179 L 223 180 L 223 193 L 222 194 L 222 200 L 220 205 L 213 211 L 211 211 L 207 209 L 203 205 L 201 201 L 201 195 L 200 194 L 200 182 L 201 181 L 201 177 L 205 169 Z" fill="#FFD94D" fill-rule="evenodd"/>
</svg>
